#!OML:ASF G:\ViconDB\ViconDB\414\test\team2\shane.ASF
:FULLY-SPECIFIED
:DEGREES
376
root 0.419304 16.8023 29.9965 -10.9069 13.7301 -6.72998
lowerback 8.89971 -2.15076 3.53439
upperback 5.09695 -2.53334 4.30437
thorax 0.351863 -1.24131 2.68462
lowerneck -10.8544 -4.86638 -6.67434
upperneck 45.8637 -5.858 0.743126
head 20.0399 -3.29089 0.491057
rclavicle 2.8625e-014 -7.95139e-016
rhumerus -45.0759 35.9533 -85.9189
rradius 71.4824
rwrist -2.80997
rhand -9.40947 -6.50688
rfingers 7.12502
rthumb 16.5523 -35.8209
lclavicle 2.8625e-014 -7.95139e-016
lhumerus -48.4477 -30.2815 105.013
lradius 39.2974
lwrist -13.4395
lhand -36.265 5.30135
lfingers 7.12502
lthumb -9.36553 35.0733
rfemur -5.58551 -14.2037 19.4577
rtibia 35.2878
rfoot -18.7985 -1.44681
rtoes -7.39585
lfemur 5.89684 -4.70914 -2.51666
ltibia 62.5527
lfoot -8.18501 -10.0305
ltoes -10.8581
377
root 0.39559 16.8029 30.1914 -11.2073 13.7014 -6.69852
lowerback 8.78558 -1.93794 3.51734
upperback 5.33846 -2.27102 4.43161
thorax 0.666966 -1.10894 2.79595
lowerneck -10.4549 -4.88229 -6.62325
upperneck 46.1935 -5.99941 0.922532
head 20.1717 -3.30915 0.55638
rclavicle 1.07344e-014 -7.55382e-014
rhumerus -44.7778 34.6783 -87.0755
rradius 68.1001
rwrist -1.45275
rhand -9.32517 -6.05095
rfingers 7.12502
rthumb 16.6334 -35.3582
lclavicle 1.07344e-014 -7.55382e-014
lhumerus -48.4477 -30.2815 105.013
lradius 39.2974
lwrist -13.4395
lhand -36.265 5.30135
lfingers 7.12502
lthumb -9.36553 35.0733
rfemur -4.63055 -13.7861 19.6005
rtibia 35.3551
rfoot -19.0809 -2.25049
rtoes -8.19672
lfemur 4.59919 -4.19944 -2.47055
ltibia 64.4567
lfoot -9.26481 -10.0468
ltoes -11.1523
378
root 0.369775 16.802 30.3781 -11.4424 13.8709 -6.72319
lowerback 8.71759 -1.85874 3.52663
upperback 5.53123 -2.17869 4.54523
thorax 0.908036 -1.06165 2.89649
lowerneck -10.0441 -4.83833 -6.55625
upperneck 46.5031 -6.03275 1.06164
head 20.2776 -3.28956 0.620875
rclavicle -5.46658e-016 1.59028e-015
rhumerus -44.2807 33.3695 -88.0431
rradius 64.8459
rwrist 0.816741
rhand -9.69654 -5.61492
rfingers 7.12502
rthumb 16.2759 -34.9518
lclavicle -5.46658e-016 1.59028e-015
lhumerus -49.098 -32.0825 106.732
lradius 41.1368
lwrist -9.45108
lhand -34.7467 5.74963
lfingers 7.12502
lthumb -7.90027 35.582
rfemur -3.74866 -13.6914 19.7344
rtibia 35.4447
rfoot -19.4533 -2.87224
rtoes -8.47926
lfemur 3.00602 -3.8779 -2.39206
ltibia 66.2029
lfoot -10.0637 -10.1668
ltoes -11.1923
379
root 0.334553 16.7928 30.5608 -11.507 14.1389 -6.76757
lowerback 8.48118 -1.78617 3.35195
upperback 5.70411 -2.119 4.66575
thorax 1.22798 -1.03591 3.1051
lowerneck -9.57707 -4.80642 -6.36154
upperneck 46.6811 -6.09519 1.13852
head 20.2611 -3.26806 0.628431
rclavicle -2.69353e-014 -3.02153e-014
rhumerus -43.2457 31.4489 -88.7068
rradius 61.3996
rwrist 3.76879
rhand -10.2863 -5.51618
rfingers 7.12502
rthumb 15.7079 -34.8987
lclavicle -2.69353e-014 -3.02153e-014
lhumerus -49.098 -32.0825 106.732
lradius 41.1368
lwrist -9.45108
lhand -34.7467 5.74963
lfingers 7.12502
lthumb -7.90027 35.582
rfemur -3.08116 -13.44 19.9986
rtibia 35.5404
rfoot -19.8627 -3.64072
rtoes -8.19163
lfemur 1.32784 -3.51283 -2.25222
ltibia 67.6202
lfoot -10.8962 -10.2465
ltoes -11.4905
380
root 0.311023 16.7848 30.7525 -11.7099 14.1334 -6.76386
lowerback 8.20152 -1.57648 3.29935
upperback 5.96934 -1.8766 4.79098
thorax 1.65832 -0.915072 3.23692
lowerneck -9.10203 -4.8176 -6.57649
upperneck 47.0085 -6.28607 1.61981
head 20.4181 -3.31568 0.890762
rclavicle 3.06128e-014 -3.49861e-014
rhumerus -42.0603 29.149 -88.9241
rradius 58.293
rwrist 6.35091
rhand -10.7156 -5.72803
rfingers 7.12502
rthumb 15.2945 -35.1425
lclavicle 3.06128e-014 -3.49861e-014
lhumerus -49.098 -32.0825 106.732
lradius 41.1368
lwrist -9.45108
lhand -34.7467 5.74963
lfingers 7.12502
lthumb -7.90027 35.582
rfemur -2.17337 -13.2787 20.102
rtibia 35.5948
rfoot -20.2566 -4.02969
rtoes -8.67934
lfemur -0.0890713 -3.05927 -2.23676
ltibia 68.7906
lfoot -11.681 -10.2086
ltoes -11.2896
381
root 0.294069 16.776 30.9396 -12.0026 14.1291 -6.77405
lowerback 8.11463 -1.44246 3.40432
upperback 6.21694 -1.71094 4.86275
thorax 1.96012 -0.82747 3.23835
lowerneck -8.72127 -4.76321 -6.35371
upperneck 47.4113 -6.23469 1.52934
head 20.5764 -3.26253 0.828152
rclavicle -5.66536e-015 -2.94201e-014
rhumerus -40.6769 26.6604 -89.0616
rradius 54.6861
rwrist 11.5557
rhand -12.2897 -5.9683
rfingers 7.12502
rthumb 13.7778 -35.4921
lclavicle -5.66536e-015 -2.94201e-014
lhumerus -49.098 -32.0825 106.732
lradius 41.1368
lwrist -9.45108
lhand -34.7467 5.74963
lfingers 7.12502
lthumb -7.90027 35.582
rfemur -1.16152 -13.2784 20.0936
rtibia 35.6875
rfoot -20.8679 -4.09937
rtoes -9.10891
lfemur -1.25537 -2.53984 -2.28713
ltibia 69.6364
lfoot -12.8696 -9.74388
ltoes -11.703
382
root 0.274716 16.7558 31.1208 -12.2979 14.2007 -6.95152
lowerback 8.00095 -1.35377 3.64014
upperback 6.44444 -1.59937 4.9412
thorax 2.2554 -0.76208 3.17775
lowerneck -8.26301 -4.71687 -6.30525
upperneck 47.821 -6.26556 1.69275
head 20.7562 -3.2425 0.913639
rclavicle 2.3059e-014 -1.98785e-014
rhumerus -39.117 24.0447 -89.2016
rradius 51.4703
rwrist 14.4499
rhand -13.1611 -6.64891
rfingers 7.12502
rthumb 12.9379 -36.2278
lclavicle 2.3059e-014 -1.98785e-014
lhumerus -48.8226 -34.7959 108.131
lradius 40.4701
lwrist -12.2574
lhand -36.8778 4.6281
lfingers 7.12502
lthumb -9.95677 34.3726
rfemur -0.202745 -13.3726 20.2924
rtibia 35.7353
rfoot -21.5324 -4.22359
rtoes -8.78079
lfemur -2.44386 -1.97121 -2.06717
ltibia 70.2402
lfoot -14.0694 -9.67761
ltoes -11.2362
